<!-- Generator: Adobe Illustrator 18.1.1, SVG Export Plug-In  -->
<svg version="1.1"
	 xmlns="http://www.w3.org/2000/svg" xmlns:xlink="http://www.w3.org/1999/xlink" xmlns:a="http://ns.adobe.com/AdobeSVGViewerExtensions/3.0/"
	 x="0px" y="0px" width="13.7px" height="21px" viewBox="0 0 13.7 21" enable-background="new 0 0 13.7 21" xml:space="preserve">
<defs>
</defs>
<g>
	<path fill="#FFFFFF" d="M6.9,0C3.2,0,0.2,2.9,0,6.5l0,0c0,0.1,0,0.2,0,0.3L0,7c0,0.2,0,0.3,0,0.5l0,0.1c0,0.1,0,0.3,0.1,0.4
		c0,0.1,0,0.2,0.1,0.3C1.1,12.3,5.3,18.6,6.3,20H2.9v1h8.5v-1h-4c0.9-1.3,4.7-7.1,5.9-10.9c0.1-0.3,0.2-0.7,0.3-1
		c0.1-0.4,0.1-0.7,0.1-1.1l0-0.1C13.7,3.1,10.6,0,6.9,0z M12.6,7.9c-0.1,0.3-0.1,0.6-0.2,0.9c-1.1,3.4-4.4,8.6-5.5,10.3
		c-1.2-1.8-4.9-7.5-5.7-11c0-0.1,0-0.2-0.1-0.3c0-0.1,0-0.3-0.1-0.3l0-0.1c0,0,0,0,0-0.1l0-0.5C1,3.6,3.6,1,6.9,1
		c3.2,0,5.9,2.6,5.9,5.9l0,0.2C12.7,7.3,12.7,7.5,12.6,7.9z"/>
	<circle fill="#FFFFFF" cx="6.8" cy="7" r="2.8"/>
</g>
</svg>
