<!-- Generator: Adobe Illustrator 18.1.1, SVG Export Plug-In  -->
<svg version="1.1"
	 xmlns="http://www.w3.org/2000/svg" xmlns:xlink="http://www.w3.org/1999/xlink" xmlns:a="http://ns.adobe.com/AdobeSVGViewerExtensions/3.0/"
	 x="0px" y="0px" width="130px" height="47.5px" viewBox="0 0 130 47.5" enable-background="new 0 0 130 47.5" xml:space="preserve"
	>
<defs>
</defs>
<g>
	<path fill="#D01317" d="M12.5,21.7c-0.4-0.5-0.9-0.9-1.5-1.1c-0.6-0.3-1.4-0.4-2.2-0.4c-1.1,0-2,0.2-2.8,0.7
		c-0.8,0.5-1.4,1.2-2,2.2v-2.5H0v12.5h4.3v-5.3c0-1.5,0.2-2.6,0.6-3.3c0.4-0.7,1.1-1,2-1c0.7,0,1.2,0.2,1.6,0.7
		C8.9,24.7,9,25.4,9,26.4v6.7h4.4V26c0-1.2-0.1-2.1-0.2-2.7C13.1,22.7,12.9,22.2,12.5,21.7z M23.8,27.3c0,1.1-0.2,1.8-0.5,2.3
		c-0.3,0.5-0.9,0.7-1.7,0.7c-0.8,0-1.3-0.2-1.7-0.7c-0.3-0.5-0.5-1.2-0.5-2.3v-6.7h-4.2V27c0,1.4,0.1,2.5,0.3,3.2
		c0.2,0.7,0.6,1.3,1.1,1.8c0.6,0.6,1.3,1,2.1,1.2c0.8,0.3,1.8,0.4,2.9,0.4c1.1,0,2.1-0.1,2.9-0.4c0.8-0.3,1.5-0.7,2.1-1.2
		c0.5-0.5,0.9-1.1,1.1-1.8c0.2-0.7,0.3-1.7,0.3-3.1v-6.4h-4.3V27.3z M39,20.6l-2.1,5.5c0,0.1-0.1,0.2-0.1,0.3
		c-0.3,0.7-0.4,1.2-0.5,1.6c-0.1-0.4-0.2-1-0.5-1.7c0-0.1-0.1-0.2-0.1-0.2l-2.1-5.5h-4.7l5.6,12.5H38l5.7-12.5H39z M55,22.1
		c-0.7-0.6-1.4-1.1-2.2-1.4c-0.8-0.3-1.7-0.5-2.7-0.5c-1,0-1.9,0.2-2.7,0.5c-0.8,0.3-1.6,0.8-2.2,1.4c-0.7,0.6-1.2,1.4-1.5,2.2
		c-0.3,0.8-0.5,1.7-0.5,2.6c0,0.9,0.2,1.8,0.5,2.6c0.3,0.8,0.9,1.5,1.5,2.2c0.7,0.6,1.4,1.1,2.2,1.5c0.8,0.3,1.7,0.5,2.7,0.5
		c0.9,0,1.8-0.2,2.7-0.5c0.8-0.3,1.6-0.8,2.3-1.5c0.7-0.6,1.2-1.4,1.5-2.2c0.3-0.8,0.5-1.7,0.5-2.6c0-0.9-0.2-1.8-0.5-2.6
		C56.2,23.5,55.6,22.8,55,22.1z M51.9,29.1c-0.5,0.5-1.1,0.8-1.9,0.8c-0.8,0-1.5-0.3-1.9-0.8c-0.5-0.5-0.7-1.3-0.7-2.2
		c0-0.9,0.2-1.7,0.7-2.2c0.5-0.5,1.1-0.8,1.9-0.8c0.8,0,1.4,0.3,1.9,0.8c0.5,0.5,0.7,1.3,0.7,2.2C52.6,27.8,52.4,28.6,51.9,29.1z
		 M58.4,33.1h4.4V20.6h-4.4V33.1z M60.6,14.3c-0.7,0-1.2,0.2-1.7,0.7c-0.5,0.5-0.7,1-0.7,1.7c0,0.7,0.2,1.2,0.7,1.7
		c0.5,0.5,1.1,0.7,1.7,0.7c0.7,0,1.3-0.2,1.7-0.7c0.5-0.5,0.7-1.1,0.7-1.7c0-0.7-0.2-1.3-0.7-1.7C61.9,14.5,61.3,14.3,60.6,14.3z
		 M65.1,13.9v19.2h4.4V13.9H65.1z"/>
	<g>
		<g>
			<g>
				<path fill="#F8B032" d="M123.3,13.9c0.2-0.2,0.5-0.4,0.8-0.5l0,0c1.6-0.6,3.3,0.2,3.9,1.8l0,0c0.6,1.6-0.1,3.4-1.7,4l0,0
					c-0.3,0.1-0.6,0.2-0.9,0.2l0,0l-7.9-0.1L123.3,13.9L123.3,13.9z"/>
				<path fill="#F8B032" d="M89.1,33.6c-0.2,0.2-0.5,0.4-0.8,0.5l0,0c-1.6,0.6-3.3-0.2-4-1.8l0,0c-0.6-1.6,0.1-3.4,1.7-4l0,0
					c0.3-0.1,0.6-0.2,0.9-0.2l0,0l7.9,0.1L89.1,33.6L89.1,33.6z"/>
			</g>
			<g>
				<path fill="#F8B032" d="M116.1,40.9c0.2,0.2,0.4,0.5,0.5,0.8l0,0c0.6,1.6-0.2,3.3-1.8,4l0,0c-1.6,0.6-3.4-0.1-4-1.7l0,0
					c-0.1-0.3-0.2-0.6-0.2-0.9l0,0l0.1-7.9L116.1,40.9L116.1,40.9z"/>
				<path fill="#F8B032" d="M96.4,6.7c-0.2-0.2-0.4-0.5-0.5-0.8l0,0c-0.6-1.6,0.2-3.3,1.8-4l0,0c1.6-0.6,3.4,0.1,4,1.7l0,0
					c0.1,0.3,0.2,0.6,0.2,0.9l0,0l-0.1,7.9L96.4,6.7L96.4,6.7z"/>
			</g>
			<g>
				<path fill="#F8B032" d="M111.3,4.7c0-0.3,0.1-0.6,0.2-0.9l0,0c0.7-1.5,2.5-2.2,4.1-1.5l0,0c1.6,0.7,2.3,2.5,1.6,4l0,0
					c-0.1,0.3-0.3,0.6-0.5,0.8l0,0l-5.6,5.5L111.3,4.7L111.3,4.7z"/>
				<path fill="#F8B032" d="M101.1,42.8c0,0.3-0.1,0.6-0.2,0.9l0,0c-0.7,1.5-2.5,2.2-4.1,1.5l0,0c-1.6-0.7-2.3-2.5-1.6-4l0,0
					c0.1-0.3,0.3-0.6,0.5-0.8l0,0l5.6-5.5L101.1,42.8L101.1,42.8z"/>
			</g>
			<g>
				<path fill="#F8B032" d="M125.3,28.9c0.3,0,0.6,0.1,0.9,0.2l0,0c1.5,0.7,2.2,2.5,1.5,4.1l0,0c-0.7,1.6-2.5,2.3-4,1.6l0,0
					c-0.3-0.1-0.6-0.3-0.8-0.5l0,0l-5.5-5.6L125.3,28.9L125.3,28.9z"/>
				<path fill="#F8B032" d="M87.2,18.7c-0.3,0-0.6-0.1-0.9-0.2l0,0c-1.5-0.7-2.2-2.5-1.5-4.1l0,0c0.7-1.6,2.5-2.3,4-1.6l0,0
					c0.3,0.1,0.6,0.3,0.8,0.5l0,0l5.5,5.6L87.2,18.7L87.2,18.7z"/>
			</g>
		</g>
		<g>
			<g>
				<path fill="#F19004" d="M103.4,4.1c-0.1-0.3-0.2-0.7-0.1-1l0,0c0-1.8,1.5-3.2,3.3-3.1l0,0c1.8,0,3.2,1.5,3.2,3.2l0,0
					c0,0.4-0.1,0.7-0.2,1l0,0l-3.3,10.2L103.4,4.1L103.4,4.1z"/>
				<path fill="#F19004" d="M109.1,43.4c0.1,0.3,0.2,0.7,0.1,1l0,0c0,1.8-1.5,3.2-3.3,3.1l0,0c-1.8,0-3.2-1.5-3.2-3.2l0,0
					c0-0.3,0.1-0.7,0.2-1l0,0l3.3-10.2L109.1,43.4L109.1,43.4z"/>
			</g>
			<g>
				<path fill="#F19004" d="M125.9,20.9c0.3-0.1,0.7-0.2,1-0.1l0,0c1.8,0,3.2,1.5,3.1,3.3l0,0c0,1.8-1.5,3.2-3.2,3.2l0,0
					c-0.3,0-0.7-0.1-1-0.2l0,0l-10.2-3.3L125.9,20.9L125.9,20.9z"/>
				<path fill="#F19004" d="M86.6,26.6c-0.3,0.1-0.7,0.2-1,0.1l0,0c-1.8,0-3.2-1.5-3.1-3.3l0,0c0-1.8,1.5-3.2,3.3-3.2l0,0
					c0.3,0,0.7,0.1,1,0.2l0,0l10.2,3.3L86.6,26.6L86.6,26.6z"/>
			</g>
			<g>
				<path fill="#F19004" d="M90.5,11.7c-0.3-0.2-0.6-0.4-0.8-0.6l0,0c-1.2-1.3-1.1-3.3,0.2-4.6l0,0c1.3-1.2,3.3-1.3,4.6,0l0,0
					c0.2,0.2,0.4,0.5,0.6,0.8l0,0l4.9,9.5L90.5,11.7L90.5,11.7z"/>
				<path fill="#F19004" d="M122,35.8c0.3,0.2,0.6,0.4,0.8,0.6l0,0c1.2,1.3,1.1,3.3-0.2,4.6l0,0c-1.3,1.2-3.3,1.3-4.6,0l0,0
					c-0.2-0.2-0.4-0.5-0.6-0.8l0,0l-4.9-9.5L122,35.8L122,35.8z"/>
			</g>
			<g>
				<path fill="#F19004" d="M118.3,8c0.1-0.3,0.4-0.6,0.6-0.8l0,0c1.3-1.2,3.3-1.1,4.6,0.2l0,0c1.2,1.3,1.3,3.3,0,4.6l0,0
					c-0.2,0.2-0.5,0.4-0.8,0.6l0,0l-9.5,4.9L118.3,8L118.3,8z"/>
				<path fill="#F19004" d="M94.2,39.5c-0.2,0.3-0.4,0.6-0.6,0.8l0,0c-1.3,1.2-3.3,1.1-4.6-0.2l0,0c-1.2-1.3-1.3-3.3,0-4.6l0,0
					c0.2-0.2,0.5-0.4,0.8-0.6l0,0l9.5-4.9L94.2,39.5L94.2,39.5z"/>
			</g>
		</g>
	</g>
	<g>
		<path fill="#D01317" d="M74.2,31.9c0,0.8-0.7,1.5-1.5,1.5c-0.8,0-1.5-0.7-1.5-1.5c0-0.8,0.7-1.5,1.5-1.5
			C73.5,30.4,74.2,31,74.2,31.9z M71.6,31.9c0,0.7,0.5,1.2,1.1,1.2c0.6,0,1.1-0.5,1.1-1.2c0-0.7-0.5-1.2-1.1-1.2
			C72.1,30.7,71.6,31.2,71.6,31.9z M72.5,32.6h-0.3v-1.5c0.1,0,0.3,0,0.6,0c0.3,0,0.4,0,0.5,0.1c0.1,0.1,0.2,0.2,0.2,0.3
			c0,0.2-0.1,0.3-0.3,0.3v0c0.1,0,0.2,0.2,0.3,0.4c0,0.2,0.1,0.3,0.1,0.4H73c0-0.1-0.1-0.2-0.1-0.4c0-0.2-0.1-0.2-0.3-0.2h-0.2V32.6
			z M72.5,31.8h0.2c0.2,0,0.3-0.1,0.3-0.2c0-0.1-0.1-0.2-0.3-0.2c-0.1,0-0.2,0-0.2,0V31.8z"/>
	</g>
</g>
</svg>
