<!-- Generator: Adobe Illustrator 18.1.1, SVG Export Plug-In  -->
<svg version="1.1"
	 xmlns="http://www.w3.org/2000/svg" xmlns:xlink="http://www.w3.org/1999/xlink" xmlns:a="http://ns.adobe.com/AdobeSVGViewerExtensions/3.0/"
	 x="0px" y="0px" width="86px" height="35.9px" viewBox="0 0 86 35.9" enable-background="new 0 0 86 35.9" xml:space="preserve">
<defs>
</defs>
<g>
	<linearGradient id="lozenge_3_" gradientUnits="userSpaceOnUse" x1="60.3626" y1="-1.818989e-12" x2="60.3626" y2="35.8822">
		<stop  offset="0" style="stop-color:#E32E28"/>
		<stop  offset="1" style="stop-color:#BE2126"/>
	</linearGradient>
	<path id="lozenge_2_" fill="url(#lozenge_3_)" d="M85.5,7.7c0,0-0.5-3.5-2-5.1c-1.9-2-4.1-2-5.1-2.2C71.1,0,60.4,0,60.4,0h0
		c0,0-10.8,0-17.9,0.5c-1,0.1-3.2,0.1-5.1,2.2c-1.5,1.5-2,5.1-2,5.1s-0.5,4.1-0.5,8.3v3.9c0,4.1,0.5,8.3,0.5,8.3s0.5,3.5,2,5.1
		c1.9,2,4.5,2,5.7,2.2c4.1,0.4,17.4,0.5,17.4,0.5s10.8,0,17.9-0.5c1-0.1,3.2-0.1,5.1-2.2c1.5-1.5,2-5.1,2-5.1S86,24,86,19.9V16
		C86,11.9,85.5,7.7,85.5,7.7z"/>
	<path id="u_2_" d="M32.1,29h-3.3v-1.9c-1.2,1.4-2.3,2.1-3.4,2.1c-1,0-1.7-0.5-2-1.3c-0.2-0.5-0.4-1.3-0.4-2.5V11.7h3.3v12.9
		c0,0.7,0,1,0,1.2c0.1,0.5,0.3,0.7,0.7,0.7c0.6,0,1.2-0.5,1.9-1.5V11.7h3.3V29z"/>
	<path id="o_2_" d="M20.6,17.4c0-1.9-0.4-3.2-1-4.1c-0.9-1.2-2.2-1.7-3.6-1.7c-1.6,0-2.7,0.5-3.6,1.7c-0.7,0.9-1,2.3-1,4.1l0,6.2
		c0,1.8,0.3,3.1,1,4c0.9,1.2,2.3,1.8,3.6,1.8s2.8-0.6,3.7-1.8c0.7-0.9,1-2.1,1-4V17.4z M17.3,23.9c0.2,1.7-0.4,2.6-1.4,2.6
		s-1.5-0.9-1.4-2.6V17c-0.2-1.7,0.4-2.5,1.4-2.5c1,0,1.5,0.8,1.4,2.5L17.3,23.9z"/>
	<path id="y_2_" d="M7.7,19.6V29H4.3v-9.4C4.3,19.6,0.7,8,0,5.9h3.6l2.4,9l2.4-9H12L7.7,19.6z"/>
	<path id="e_1_" fill="#FFFFFF" d="M81.7,21l0-3.5c0-1.8-0.4-3.2-1-4c-0.9-1.2-2.1-1.8-3.7-1.8c-1.6,0-2.8,0.6-3.7,1.8
		c-0.7,0.9-1,2.3-1,4.1v6c0,1.8,0.4,3.1,1.1,4c0.9,1.2,2.1,1.8,3.8,1.8c1.6,0,2.9-0.6,3.8-1.9c0.4-0.5,0.6-1.2,0.7-1.9
		c0-0.3,0.1-1,0.1-2V23h-3.3c0,1.2,0,2,0,2.2c-0.2,0.8-0.6,1.2-1.4,1.2c-1.1,0-1.5-0.8-1.5-2.4V21H81.7z M75.5,16.5
		c0-1.6,0.4-2,1.5-2c1,0,1.4,0.5,1.4,2.1v1.9l-2.9,0V16.5z"/>
	<path id="b_1_" fill="#FFFFFF" d="M67.3,11.6c-1.1,0-2.3,0.7-3.3,1.9L64,6h-3.1v23H64l0-1.7c1,1.3,2.2,1.9,3.3,1.9
		c1.2,0,2.1-0.7,2.6-1.9c0.2-0.7,0.3-1.8,0.3-3.4V17c0-1.6-0.2-2.7-0.4-3.4C69.4,12.3,68.5,11.6,67.3,11.6z M66.9,24.1
		c0,1.7-0.4,2.4-1.3,2.4c-0.5,0-1.1-0.3-1.6-0.8l0-10.4c0.5-0.5,1.1-0.8,1.6-0.8c0.9,0,1.3,0.5,1.3,2.2V24.1z"/>
	<path id="u_1_" fill="#FFFFFF" d="M58.4,29h-3.3v-1.9c-1.2,1.4-2.3,2.1-3.4,2.1c-1,0-1.7-0.5-2-1.3c-0.2-0.5-0.4-1.3-0.4-2.5V11.9
		h3.3v12.7c0,0.7,0,1,0,1.2c0.1,0.5,0.3,0.7,0.7,0.7c0.6,0,1.2-0.5,1.9-1.5v-13h3.3V29z"/>
	<polygon id="T_2_" fill="#FFFFFF" points="46,29 42.6,29 42.6,9.3 39,9.3 39,6 49.8,6 49.8,9.3 46,9.3 	"/>
</g>
</svg>
