<!-- Generator: Adobe Illustrator 18.1.1, SVG Export Plug-In  -->
<svg version="1.1"
	 xmlns="http://www.w3.org/2000/svg" xmlns:xlink="http://www.w3.org/1999/xlink" xmlns:a="http://ns.adobe.com/AdobeSVGViewerExtensions/3.0/"
	 x="0px" y="0px" width="126.7px" height="46.3px" viewBox="0 0 126.7 46.3" enable-background="new 0 0 126.7 46.3"
	 xml:space="preserve">
<defs>
</defs>
<g>
	<path fill="#FFFFFF" d="M12.2,21.2c-0.4-0.5-0.9-0.8-1.5-1.1c-0.6-0.3-1.3-0.4-2.1-0.4c-1,0-1.9,0.2-2.7,0.7
		c-0.7,0.5-1.4,1.2-2,2.2v-2.5H0v12.2h4.2v-5.1c0-1.5,0.2-2.6,0.6-3.2c0.4-0.7,1.1-1,2-1c0.7,0,1.2,0.2,1.5,0.7
		c0.3,0.4,0.5,1.2,0.5,2.1v6.5h4.3v-7c0-1.2-0.1-2-0.2-2.6C12.8,22.1,12.5,21.6,12.2,21.2z M23.2,26.6c0,1-0.2,1.8-0.5,2.2
		c-0.3,0.4-0.9,0.7-1.7,0.7c-0.8,0-1.3-0.2-1.6-0.7c-0.3-0.5-0.5-1.2-0.5-2.2v-6.5h-4.1v6.2c0,1.4,0.1,2.4,0.3,3.1
		c0.2,0.7,0.6,1.3,1.1,1.8c0.6,0.5,1.2,0.9,2,1.2c0.8,0.3,1.7,0.4,2.8,0.4c1.1,0,2-0.1,2.8-0.4c0.8-0.3,1.5-0.7,2-1.2
		c0.5-0.5,0.9-1.1,1.1-1.8c0.2-0.7,0.3-1.7,0.3-3.1v-6.2h-4.2V26.6z M38,20.1L36,25.5c0,0.1-0.1,0.2-0.1,0.3
		c-0.3,0.7-0.4,1.2-0.5,1.6c-0.1-0.4-0.2-1-0.5-1.7c0-0.1-0.1-0.1-0.1-0.2l-2.1-5.4h-4.6l5.5,12.2H37l5.5-12.2H38z M53.6,21.6
		c-0.6-0.6-1.4-1.1-2.2-1.4c-0.8-0.3-1.7-0.5-2.6-0.5c-0.9,0-1.8,0.2-2.6,0.5c-0.8,0.3-1.5,0.8-2.2,1.4c-0.7,0.6-1.1,1.3-1.5,2.1
		c-0.3,0.8-0.5,1.6-0.5,2.5c0,0.9,0.2,1.7,0.5,2.5c0.3,0.8,0.8,1.5,1.5,2.1c0.6,0.6,1.4,1.1,2.2,1.4c0.8,0.3,1.7,0.5,2.6,0.5
		c0.9,0,1.8-0.2,2.6-0.5c0.8-0.3,1.6-0.8,2.2-1.4c0.7-0.6,1.2-1.3,1.5-2.1c0.3-0.8,0.5-1.6,0.5-2.5c0-0.9-0.2-1.7-0.5-2.5
		C54.7,22.9,54.2,22.2,53.6,21.6z M50.6,28.4c-0.5,0.5-1.1,0.8-1.9,0.8c-0.8,0-1.4-0.3-1.9-0.8c-0.5-0.5-0.7-1.2-0.7-2.1
		s0.2-1.6,0.7-2.1c0.5-0.5,1.1-0.8,1.9-0.8c0.8,0,1.4,0.3,1.9,0.8c0.5,0.5,0.7,1.2,0.7,2.1S51.1,27.8,50.6,28.4z M56.9,32.3h4.3
		V20.1h-4.3V32.3z M59.1,13.9c-0.7,0-1.2,0.2-1.7,0.7c-0.5,0.5-0.7,1-0.7,1.7c0,0.7,0.2,1.2,0.7,1.7c0.5,0.5,1,0.7,1.7,0.7
		c0.7,0,1.2-0.2,1.7-0.7c0.5-0.5,0.7-1,0.7-1.7c0-0.7-0.2-1.2-0.7-1.7C60.3,14.2,59.8,13.9,59.1,13.9z M63.4,13.6v18.7h4.3V13.6
		H63.4z"/>
	<g>
		<g>
			<g>
				<path fill="#FFFFFF" d="M120.2,13.6c0.2-0.2,0.5-0.4,0.8-0.5l0,0c1.5-0.6,3.2,0.2,3.8,1.7l0,0c0.6,1.5-0.1,3.3-1.6,3.9l0,0
					c-0.3,0.1-0.6,0.2-0.9,0.2l0,0l-7.7-0.1L120.2,13.6L120.2,13.6z"/>
				<path fill="#FFFFFF" d="M86.9,32.8c-0.2,0.2-0.5,0.4-0.8,0.5l0,0c-1.5,0.6-3.2-0.2-3.9-1.7l0,0c-0.6-1.5,0.1-3.3,1.6-3.9l0,0
					c0.3-0.1,0.6-0.2,0.9-0.2l0,0l7.7,0.1L86.9,32.8L86.9,32.8z"/>
			</g>
			<g>
				<path fill="#FFFFFF" d="M113.1,39.8c0.2,0.2,0.4,0.5,0.5,0.8l0,0c0.6,1.5-0.2,3.2-1.8,3.9l0,0c-1.5,0.6-3.3-0.1-3.9-1.6l0,0
					c-0.1-0.3-0.2-0.6-0.2-0.9l0,0l0.1-7.7L113.1,39.8L113.1,39.8z"/>
				<path fill="#FFFFFF" d="M93.9,6.5c-0.2-0.2-0.4-0.5-0.5-0.8l0,0c-0.6-1.5,0.2-3.2,1.8-3.8l0,0c1.5-0.6,3.3,0.1,3.9,1.6l0,0
					c0.1,0.3,0.2,0.6,0.2,0.9l0,0l-0.1,7.7L93.9,6.5L93.9,6.5z"/>
			</g>
			<g>
				<path fill="#FFFFFF" d="M108.5,4.6c0-0.3,0.1-0.6,0.2-0.9l0,0c0.7-1.5,2.4-2.1,4-1.5l0,0c1.5,0.7,2.3,2.4,1.6,3.9l0,0
					c-0.1,0.3-0.3,0.6-0.5,0.8l0,0l-5.5,5.3L108.5,4.6L108.5,4.6z"/>
				<path fill="#FFFFFF" d="M98.6,41.7c0,0.3-0.1,0.6-0.2,0.9l0,0c-0.7,1.5-2.4,2.2-4,1.5l0,0c-1.5-0.7-2.3-2.4-1.6-3.9l0,0
					c0.1-0.3,0.3-0.6,0.5-0.8l0,0l5.5-5.3L98.6,41.7L98.6,41.7z"/>
			</g>
			<g>
				<path fill="#FFFFFF" d="M122.1,28.1c0.3,0,0.6,0.1,0.9,0.2l0,0c1.5,0.7,2.2,2.4,1.5,4l0,0c-0.7,1.5-2.4,2.3-3.9,1.6l0,0
					c-0.3-0.1-0.6-0.3-0.8-0.5l0,0l-5.3-5.5L122.1,28.1L122.1,28.1z"/>
				<path fill="#FFFFFF" d="M85,18.2c-0.3,0-0.6-0.1-0.9-0.2l0,0c-1.5-0.7-2.1-2.4-1.5-4l0,0c0.7-1.5,2.4-2.3,3.9-1.6l0,0
					c0.3,0.1,0.6,0.3,0.8,0.5l0,0l5.3,5.5L85,18.2L85,18.2z"/>
			</g>
		</g>
		<g>
			<g>
				<path fill="#FFFFFF" d="M100.8,4c-0.1-0.3-0.1-0.6-0.1-1l0,0c0-1.7,1.5-3.1,3.3-3l0,0c1.7,0,3.2,1.4,3.1,3.2l0,0
					c0,0.3-0.1,0.7-0.2,1l0,0l-3.2,9.9L100.8,4L100.8,4z"/>
				<path fill="#FFFFFF" d="M106.3,42.3c0.1,0.3,0.1,0.6,0.1,1l0,0c0,1.7-1.5,3.1-3.3,3l0,0c-1.7,0-3.2-1.4-3.1-3.2l0,0
					c0-0.3,0.1-0.7,0.2-1l0,0l3.2-9.9L106.3,42.3L106.3,42.3z"/>
			</g>
			<g>
				<path fill="#FFFFFF" d="M122.7,20.4c0.3-0.1,0.6-0.1,1-0.1l0,0c1.7,0,3.1,1.5,3,3.2l0,0c0,1.7-1.4,3.2-3.2,3.1l0,0
					c-0.3,0-0.7-0.1-1-0.2l0,0l-9.9-3.2L122.7,20.4L122.7,20.4z"/>
				<path fill="#FFFFFF" d="M84.4,25.9c-0.3,0.1-0.6,0.1-1,0.1l0,0c-1.7,0-3.1-1.5-3-3.3l0,0c0-1.7,1.4-3.2,3.2-3.1l0,0
					c0.3,0,0.7,0.1,1,0.2l0,0l9.9,3.2L84.4,25.9L84.4,25.9z"/>
			</g>
			<g>
				<path fill="#FFFFFF" d="M88.2,11.4c-0.3-0.1-0.6-0.3-0.8-0.6l0,0c-1.2-1.3-1.1-3.2,0.2-4.4l0,0c1.3-1.2,3.2-1.2,4.4,0l0,0
					c0.2,0.2,0.4,0.5,0.6,0.8l0,0l4.7,9.3L88.2,11.4L88.2,11.4z"/>
				<path fill="#FFFFFF" d="M118.9,34.9c0.3,0.1,0.6,0.3,0.8,0.6l0,0c1.2,1.3,1.1,3.2-0.2,4.5l0,0c-1.3,1.2-3.2,1.2-4.4,0l0,0
					c-0.2-0.2-0.4-0.5-0.6-0.8l0,0l-4.7-9.3L118.9,34.9L118.9,34.9z"/>
			</g>
			<g>
				<path fill="#FFFFFF" d="M115.2,7.8c0.1-0.3,0.3-0.6,0.6-0.8l0,0c1.3-1.2,3.2-1.1,4.4,0.1l0,0c1.2,1.3,1.2,3.2,0,4.5l0,0
					c-0.2,0.2-0.5,0.4-0.8,0.6l0,0l-9.3,4.7L115.2,7.8L115.2,7.8z"/>
				<path fill="#FFFFFF" d="M91.8,38.5c-0.1,0.3-0.3,0.6-0.6,0.8l0,0c-1.2,1.2-3.2,1.1-4.4-0.1l0,0c-1.2-1.3-1.2-3.2,0-4.5l0,0
					c0.2-0.2,0.5-0.4,0.8-0.6l0,0l9.3-4.7L91.8,38.5L91.8,38.5z"/>
			</g>
		</g>
	</g>
	<g>
		<path fill="#FFFFFF" d="M72.3,31c0,0.8-0.6,1.4-1.5,1.4c-0.8,0-1.5-0.6-1.5-1.4c0-0.8,0.7-1.4,1.5-1.4
			C71.7,29.6,72.3,30.2,72.3,31z M69.7,31c0,0.6,0.5,1.1,1.1,1.1c0.6,0,1.1-0.5,1.1-1.1c0-0.6-0.5-1.1-1.1-1.1
			C70.2,29.9,69.7,30.4,69.7,31z M70.6,31.8h-0.3v-1.4c0.1,0,0.3,0,0.5,0c0.3,0,0.4,0,0.5,0.1c0.1,0.1,0.1,0.2,0.1,0.3
			c0,0.2-0.1,0.3-0.3,0.3v0c0.1,0,0.2,0.2,0.3,0.3c0,0.2,0.1,0.3,0.1,0.3h-0.3c0-0.1-0.1-0.2-0.1-0.3c0-0.1-0.1-0.2-0.3-0.2h-0.2
			V31.8z M70.6,31h0.2c0.2,0,0.3-0.1,0.3-0.2c0-0.1-0.1-0.2-0.3-0.2c-0.1,0-0.2,0-0.2,0V31z"/>
	</g>
</g>
</svg>
