<!-- Generator: Adobe Illustrator 18.1.1, SVG Export Plug-In  -->
<svg version="1.1"
	 xmlns="http://www.w3.org/2000/svg" xmlns:xlink="http://www.w3.org/1999/xlink" xmlns:a="http://ns.adobe.com/AdobeSVGViewerExtensions/3.0/"
	 x="0px" y="0px" width="27.4px" height="27.4px" viewBox="0 0 27.4 27.4" enable-background="new 0 0 27.4 27.4"
	 xml:space="preserve">
<defs>
</defs>
<g>
	<path fill="#333333" d="M5.5,11.9c2.1,4.3,5.8,7.8,10,10l3.3-3.3c0.5-0.5,1.1-0.6,1.5-0.3c1.7,0.6,3.5,0.9,5.5,0.9
		c0.9,0,1.5,0.6,1.5,1.5v5.2c0,0.9-0.6,1.5-1.5,1.5C11.5,27.4,0,15.8,0,1.5C0,0.6,0.6,0,1.5,0h5.3c0.9,0,1.5,0.6,1.5,1.5
		c0,1.8,0.3,3.6,0.9,5.5c0.2,0.5,0,1.1-0.3,1.5L5.5,11.9z M5.5,11.9"/>
</g>
</svg>
